# xmcd
#
# Track frame offsets: 
#        150
#        23268
#        39762
#        59894
#        71316
#        94495
#        116296
#        136772
#        158401
#        171881
#        192733
#
# Disc length: 2654 seconds
#
# Revision: 0
# Processed by: cddbd v1.5.2PL0 Copyright (c) Steve Scherf et al.
# Submitted via: ExactAudioCopyFreeDBPlugin 1.0
#
DISCID=880a5c0b
DTITLE=Southeast Engine - Canary
DYEAR=2011
DGENRE=alt country
TTITLE0=Curse of Canaanville
TTITLE1=Cold Front Blues
TTITLE2=1933 (Great Depression)
TTITLE3=At Least We Have Each Other
TTITLE4=Adeline of the Appalachian Mountains
TTITLE5=Red Lake Shore
TTITLE6=Mountain Child
TTITLE7=New Growth
TTITLE8=Summer and Her Ferris Wheel
TTITLE9=Ruthie
TTITLE10=Secret Song
EXTD=
EXTT0=
EXTT1=
EXTT2=
EXTT3=
EXTT4=
EXTT5=
EXTT6=
EXTT7=
EXTT8=
EXTT9=
EXTT10=
PLAYORDER=
